<svg width="50" height="50" viewBox="0 0 50 50" fill="none" xmlns="http://www.w3.org/2000/svg">
<circle cx="24.8498" cy="24.8498" r="24.8498" fill="#CF68FF"/>
<path d="M25 10.1667C22.3764 10.1667 20.25 12.2931 20.25 14.9167V24.4167C20.25 27.0402 22.3764 29.1667 25 29.1667C27.6236 29.1667 29.75 27.0402 29.75 24.4167V14.9167C29.75 12.2931 27.6236 10.1667 25 10.1667ZM15.6392 24.4167C14.6797 24.4167 13.9069 25.2681 14.062 26.2165C14.8377 30.966 18.6368 34.6909 23.4167 35.3763V38.6667C23.4167 39.5407 24.126 40.25 25 40.25C25.874 40.25 26.5834 39.5407 26.5834 38.6667V35.3763C31.3632 34.6909 35.1624 30.966 35.938 26.2165C36.0932 25.2681 35.3204 24.4167 34.3609 24.4167C33.5787 24.4167 32.9337 24.9923 32.8023 25.765C32.161 29.4937 28.9124 32.3333 25 32.3333C21.0876 32.3333 17.839 29.4937 17.1978 25.765C17.0664 24.9923 16.4229 24.4167 15.6392 24.4167Z" fill="white"/>
</svg>
