<svg width="26" height="26" viewBox="0 0 26 26" fill="none" xmlns="http://www.w3.org/2000/svg">
<path d="M19.5 23.8333H6.49998C5.30831 23.8333 4.33331 22.8583 4.33331 21.6667V4.33332C4.33331 3.14166 5.30831 2.16666 6.49998 2.16666H15.1666L21.6666 8.66666V21.6667C21.6666 22.8583 20.6916 23.8333 19.5 23.8333ZM6.49998 4.33332V21.6667H19.5V9.53332L14.3 4.33332H6.49998Z" fill="#333333"/>
<path d="M20.0417 9.74999H14.0833V3.79166L20.0417 9.74999ZM11.9167 15.1667C11.342 15.1667 10.7909 15.3949 10.3846 15.8013C9.97827 16.2076 9.75 16.7587 9.75 17.3333C9.75 17.908 9.97827 18.4591 10.3846 18.8654C10.7909 19.2717 11.342 19.5 11.9167 19.5C12.4913 19.5 13.0424 19.2717 13.4487 18.8654C13.8551 18.4591 14.0833 17.908 14.0833 17.3333C14.0833 16.7587 13.8551 16.2076 13.4487 15.8013C13.0424 15.3949 12.4913 15.1667 11.9167 15.1667Z" fill="#333333"/>
<path d="M16.25 11.9167H11.9167V17.3333H14.0834V14.0833H16.25V11.9167Z" fill="#333333"/>
</svg>
