<?xml version="1.0" encoding="UTF-8" standalone="no"?>
<svg
   width="26"
   height="26"
   viewBox="0 0 26 26"
   fill="none"
   version="1.1"
   id="svg62"
   xml:space="preserve"
   xmlns="http://www.w3.org/2000/svg"
   xmlns:svg="http://www.w3.org/2000/svg"><defs
     id="defs66" /><path
     d="M 20.0417,9.74999 H 14.0833 V 3.79166 Z"
     fill="#333333"
     id="path58"
     style="display:inline" /><path
     id="rect750"
     style="display:inline;fill:#333333;fill-opacity:1;stroke-width:0.088234;stroke-dasharray:none;paint-order:stroke markers fill"
     d="m 3.3320312,10.90625 a 2.3686441,2.3686441 0 0 0 -2.36718745,2.369141 v 3.99414 A 2.2584746,2.2584746 0 0 0 3.2226562,19.527344 H 19.582031 V 10.90625 Z m 3.078125,1.576172 c 0.3688827,0 0.7298571,0.06642 1.0839844,0.199219 C 7.8531864,12.80952 8.1439048,12.99916 8.3652344,13.25 L 7.5097656,14.105469 C 7.3917232,13.94316 7.2367408,13.822836 7.0449219,13.744141 6.8531029,13.665446 6.6547808,13.626953 6.453125,13.626953 c -0.2213296,0 -0.4244276,0.04139 -0.6113281,0.125 -0.1819821,0.07869 -0.3398585,0.189397 -0.4726563,0.332031 -0.1327977,0.142635 -0.2367703,0.311075 -0.3105468,0.507813 -0.073777,0.191819 -0.109375,0.403599 -0.109375,0.634765 0,0.236085 0.035598,0.453654 0.109375,0.650391 0.073777,0.196738 0.174855,0.365178 0.3027343,0.507813 0.1327978,0.137716 0.2906742,0.245523 0.4726563,0.324218 0.1819821,0.07869 0.3812451,0.119141 0.5976562,0.119141 0.2508402,0 0.4693495,-0.05007 0.65625,-0.148437 0.1869006,-0.09837 0.3380479,-0.225423 0.4511719,-0.382813 l 0.8769531,0.826172 c -0.2311664,0.265595 -0.5160967,0.477376 -0.8554687,0.634765 -0.339372,0.152472 -0.731169,0.228516 -1.1738281,0.228516 -0.4033117,0 -0.7768034,-0.06642 -1.1210938,-0.199219 C 4.926253,17.654312 4.6316996,17.467566 4.3808594,17.226562 4.1300192,16.980641 3.9336502,16.687028 3.7910156,16.347656 3.648381,16.008284 3.5761719,15.634793 3.5761719,15.226562 c 0,-0.418066 0.072209,-0.797346 0.2148437,-1.136718 0.1475531,-0.339372 0.3497102,-0.625243 0.6054688,-0.861328 0.2557586,-0.241004 0.554147,-0.426809 0.8984375,-0.554688 0.3442904,-0.127879 0.7168411,-0.191406 1.1152343,-0.191406 z m 4.3964848,0.0078 c 0.295106,0 0.595447,0.0539 0.90039,0.16211 0.309862,0.108205 0.579381,0.267023 0.810547,0.478515 l -0.802734,0.84961 c -0.108206,-0.137716 -0.250671,-0.245524 -0.427735,-0.324219 -0.172145,-0.08361 -0.339644,-0.126953 -0.501953,-0.126953 -0.08361,0 -0.16928,0.0087 -0.257812,0.02344 -0.08361,0.01476 -0.161611,0.04363 -0.230469,0.08789 -0.06886,0.03935 -0.126597,0.09325 -0.175781,0.162109 -0.04427,0.06394 -0.06641,0.148666 -0.06641,0.251954 0,0.08853 0.01635,0.161681 0.05078,0.220703 0.03935,0.05902 0.09325,0.110031 0.162109,0.154297 0.07378,0.04426 0.161397,0.08565 0.259766,0.125 0.09837,0.03443 0.207117,0.07198 0.330078,0.111328 0.177064,0.05902 0.362868,0.125442 0.554687,0.199218 0.191819,0.06886 0.366048,0.163208 0.523438,0.28125 0.15739,0.118043 0.287338,0.264343 0.390625,0.441407 0.103287,0.172145 0.15625,0.389713 0.15625,0.65039 0,0.300025 -0.0568,0.559921 -0.169922,0.78125 -0.108206,0.216411 -0.256459,0.396428 -0.443359,0.539063 -0.186901,0.142634 -0.401575,0.247548 -0.642579,0.316406 -0.241003,0.06886 -0.488382,0.103516 -0.74414,0.103516 -0.373801,0 -0.7347756,-0.06353 -1.0839845,-0.191407 C 9.0492286,17.654312 8.7585102,17.467566 8.5273438,17.226562 l 0.8261718,-0.841796 c 0.1278793,0.15739 0.2953789,0.290232 0.5019532,0.398437 0.2114922,0.103287 0.4203792,0.15625 0.6269532,0.15625 0.09345,0 0.184906,-0.01158 0.273437,-0.03125 0.08853,-0.01967 0.164576,-0.05144 0.228516,-0.0957 0.06886,-0.04427 0.122762,-0.102005 0.162109,-0.175781 0.03935,-0.07378 0.05859,-0.162338 0.05859,-0.265625 0,-0.09837 -0.02503,-0.183095 -0.07422,-0.251953 -0.04918,-0.06886 -0.11944,-0.129491 -0.21289,-0.183594 C 10.829434,15.87653 10.715836,15.825519 10.57812,15.781253 10.445327,15.732066 10.293239,15.679103 10.121094,15.625 9.953867,15.570897 9.7892615,15.50737 9.6269531,15.433594 9.4695632,15.359817 9.3270981,15.265468 9.1992188,15.152344 9.0762579,15.034301 8.9751793,14.89473 8.8964844,14.732422 8.8227079,14.565195 8.7851562,14.363038 8.7851562,14.126953 c 0,-0.290188 0.059692,-0.537566 0.1777344,-0.744141 0.1180425,-0.206574 0.2730248,-0.376967 0.4648438,-0.509765 0.1918189,-0.132798 0.4074342,-0.228088 0.6484376,-0.287109 0.241003,-0.06394 0.484547,-0.0957 0.730469,-0.0957 z m 1.80664,0.132813 h 1.417969 l 1.208984,3.703125 h 0.0293 l 1.203125,-3.703125 h 1.394532 l -2.013672,5.222656 H 14.5918 Z" /><path
     id="path7438"
     d="m 6.5,2.1660156 c -1.1916688,0 -2.1660156,0.97631 -2.1660156,2.1679688 v 8.9589846 c 0.021299,-0.02118 0.040392,-0.04405 0.0625,-0.06445 0.2557586,-0.241004 0.554147,-0.426809 0.8984375,-0.554688 0.3442904,-0.127879 0.7168411,-0.191406 1.1152343,-0.191406 0.030087,0 0.059855,0.003 0.089844,0.0039 V 4.3339844 H 14.300781 L 19.5,9.5332031 V 21.666016 h -13 v -3.683594 c -0.03809,0.0012 -0.074394,0.0039 -0.1132812,0.0039 -0.4033117,0 -0.7768034,-0.06642 -1.1210938,-0.199219 -0.339372,-0.132797 -0.6339254,-0.319543 -0.8847656,-0.560547 -0.016501,-0.01618 -0.030842,-0.0342 -0.046875,-0.05078 v 4.490235 c 0,1.191598 0.9743468,2.167968 2.1660156,2.167968 h 13 c 1.191599,0 2.166016,-0.97637 2.166016,-2.167968 V 8.6660156 l -6.5,-6.5 z M 6.453125,13.626953 c -0.2213296,0 -0.4244276,0.04139 -0.6113281,0.125 -0.1819821,0.07869 -0.3398585,0.189397 -0.4726563,0.332031 -0.1327977,0.142635 -0.2367703,0.311075 -0.3105468,0.507813 -0.073777,0.191819 -0.109375,0.403599 -0.109375,0.634765 0,0.236085 0.035598,0.453654 0.109375,0.650391 0.073777,0.196738 0.174855,0.365178 0.3027343,0.507813 0.1327978,0.137716 0.2906742,0.245523 0.4726563,0.324218 0.1819821,0.07869 0.3812451,0.119141 0.5976562,0.119141 0.023605,0 0.045321,-0.003 0.068359,-0.0039 v -3.195313 c -0.015655,-4.78e-4 -0.03116,-0.002 -0.046875,-0.002 z"
     style="fill:#333333;fill-opacity:1" /></svg>
