<svg width="26" height="26" viewBox="0 0 26 26" fill="none" xmlns="http://www.w3.org/2000/svg">
<path d="M10.8333 13C11.4833 13 11.9167 13.4333 11.9167 14.0833C11.9167 14.7333 11.4833 15.1667 10.8333 15.1667C10.1833 15.1667 9.75 14.7333 9.75 14.0833C9.75 13.4333 10.1833 13 10.8333 13Z" fill="#333333"/>
<path d="M19.5 23.8333H6.49998C5.30831 23.8333 4.33331 22.8583 4.33331 21.6667V4.33332C4.33331 3.14166 5.30831 2.16666 6.49998 2.16666H15.1666L21.6666 8.66666V21.6667C21.6666 22.8583 20.6916 23.8333 19.5 23.8333ZM6.49998 4.33332V21.6667H19.5V9.53332L14.3 4.33332H6.49998Z" fill="#333333"/>
<path d="M20.0416 9.74999H14.0833V3.79166L20.0416 9.74999ZM15.1666 13C15.8166 13 16.25 13.4333 16.25 14.0833C16.25 14.7333 15.8166 15.1667 15.1666 15.1667C14.5166 15.1667 14.0833 14.7333 14.0833 14.0833C14.0833 13.4333 14.5166 13 15.1666 13ZM13 19.5C10.5083 19.5 9.09997 18.2 8.99164 18.0917L10.5083 16.575C10.5083 16.575 11.375 17.3333 13 17.3333C14.625 17.3333 15.4916 16.575 15.4916 16.575L17.0083 18.0917C16.9 18.2 15.4916 19.5 13 19.5Z" fill="#333333"/>
</svg>
