<?xml version="1.0" encoding="UTF-8" standalone="no"?>
<svg
   width="51"
   height="50"
   viewBox="0 0 51 50"
   fill="none"
   version="1.1"
   id="svg6"
   xmlns="http://www.w3.org/2000/svg"
   xmlns:svg="http://www.w3.org/2000/svg">
  <defs
     id="defs10" />
  <circle
     cx="25.499901"
     cy="24.8498"
     r="24.8498"
     fill="#6abcf8"
     id="circle2" />
  <path
     d="M 40.6427,18.1892 C 38.3934,12.9175 33.5504,9.20644 27.8752,8.40558 22.1999,7.60471 16.5191,9.83074 12.8989,14.2741 L 9.40522,12.2004 9.34591,12.1864 C 9.28649,12.1521 9.22427,12.1228 9.15992,12.0989 L 8.92858,12.0445 8.76144,12.0364 8.69619,12.0211 C 8.53401,12.0302 8.37528,12.0716 8.22934,12.1429 L 8.15607,12.1883 C 8.11041,12.2127 8.06636,12.24 8.02418,12.2699 L 7.94393,12.345 c -0.03108,0.0269 -0.06078,0.0555 -0.08897,0.0855 -0.04049,0.0469 -0.07735,0.0968 -0.11025,0.1493 l -0.01116,0.0475 c 0,0 -0.00976,0.0415 -0.01395,0.0593 -0.05381,0.0904 -0.09002,0.1902 -0.10675,0.2941 -0.00837,0.0356 -0.01534,0.0653 -0.02372,0.1009 -0.0147,0.0486 -0.02635,0.0982 -0.03488,0.1483 0,0 -0.01255,0.0534 -0.01813,0.0771 0.0044,0.0812 0.01691,0.1617 0.03735,0.2404 L 9.6185,21.434 9.61013,21.4696 c 0.02434,0.0842 0.05769,0.1655 0.09946,0.2425 l -0.00837,0.0356 c 0.05067,0.0813 0.11077,0.1564 0.17902,0.2237 l 0.05688,0.0509 c 0.05658,0.049 0.11758,0.0927 0.18218,0.1305 l 0.0771,0.0181 c 0.0858,0.0443 0.1766,0.0783 0.2704,0.1012 0.077,0.0265 0.1565,0.0452 0.2373,0.0558 l 0.0712,0.0167 c 0.0675,-0.0037 0.1346,-0.013 0.2006,-0.0279 l 0.0356,0.0084 7.8615,-2.0447 0.1235,-0.0461 0.0618,-0.023 c 0.1029,-0.0455 0.1991,-0.105 0.2857,-0.1769 l 0.0482,-0.0451 c 0.0884,-0.0791 0.1648,-0.1708 0.2268,-0.2721 0,0 0.0097,-0.0416 0.0139,-0.0594 0.0528,-0.0886 0.0885,-0.1864 0.1054,-0.2882 0.0083,-0.0356 0.0153,-0.0652 0.0237,-0.1008 0.0147,-0.0487 0.0263,-0.0982 0.0349,-0.1483 0,0 0.0125,-0.0534 0.0181,-0.0771 -0.0091,-0.1622 -0.0505,-0.3209 -0.1218,-0.4669 l -0.0499,-0.0806 c -0.0232,-0.043 -0.049,-0.0846 -0.0771,-0.1245 l -0.0855,-0.089 0.0146,-0.1155 c -0.0595,-0.0526 -0.124,-0.0992 -0.1926,-0.1392 L 15.018,15.5112 c 3.8063,-4.4179 9.9608,-5.99877 15.4251,-3.9623 5.4643,2.0366 9.0829,7.2599 9.0694,13.0913 -0.0135,5.8315 -3.6563,11.0379 -9.13,13.049 -5.4737,2.0112 -11.6208,0.4017 -15.4066,-4.0338 -0.442,-0.4883 -1.1921,-0.5371 -1.6937,-0.1101 -0.5015,0.427 -0.573,1.1753 -0.1614,1.6895 5.262,6.1125 14.1895,7.487 21.0464,3.2402 6.8568,-4.2468 9.6036,-12.8517 6.4755,-20.2858 z"
     fill="#ffffff"
     id="path4" />
</svg>
