<svg width="54" height="53" viewBox="0 0 54 53" fill="none" xmlns="http://www.w3.org/2000/svg">
<circle cx="28.4999" cy="26.8498" r="24.8498" fill="#6ABCF8"/>
<g clip-path="url(#clip0_341_38)">
<path d="M44.5698 24.2673C43.6009 18.6183 39.7478 13.8876 34.4117 11.7957C29.0756 9.70368 23.034 10.5552 18.4841 14.0406L15.5649 11.215L15.5104 11.1877C15.4606 11.1405 15.4068 11.0976 15.3497 11.0595L15.1372 10.953L14.9765 10.9066L14.9166 10.8766C14.7567 10.8479 14.5927 10.8515 14.4342 10.8871L14.3524 10.9143C14.3024 10.9274 14.2532 10.9438 14.2052 10.9632L14.1098 11.0176C14.0733 11.0367 14.0378 11.0576 14.0035 11.0802C13.9532 11.1165 13.9058 11.1565 13.8616 11.2L13.8398 11.2436C13.8398 11.2436 13.8207 11.2817 13.8125 11.2981C13.7392 11.3736 13.6809 11.4623 13.6406 11.5596C13.6242 11.5923 13.6106 11.6195 13.5942 11.6522C13.5687 11.6961 13.5459 11.7416 13.526 11.7884C13.526 11.7884 13.5014 11.8374 13.4905 11.8592C13.476 11.9392 13.4695 12.0205 13.4712 12.1017L13.6364 20.2475L13.62 20.2802C13.6242 20.3677 13.6379 20.4545 13.6607 20.5391L13.6443 20.5718C13.6748 20.6627 13.7159 20.7496 13.7668 20.8308L13.8103 20.8935C13.854 20.9543 13.9032 21.0109 13.9573 21.0626L14.0282 21.0981C14.1014 21.1611 14.1819 21.2151 14.2679 21.2591C14.3367 21.3027 14.4097 21.3392 14.4858 21.3683L14.5512 21.401C14.6177 21.413 14.6852 21.4195 14.7528 21.4203L14.7855 21.4366L22.9068 21.266L23.0376 21.2497L23.103 21.2416C23.2137 21.2212 23.321 21.1855 23.4219 21.1356L23.4792 21.1029C23.5836 21.0463 23.6791 20.9748 23.7628 20.8906C23.7628 20.8906 23.7819 20.8524 23.7901 20.8361C23.8619 20.762 23.9193 20.6752 23.9592 20.5801C23.9756 20.5474 23.9893 20.5201 24.0056 20.4874C24.0312 20.4435 24.054 20.398 24.0739 20.3512C24.0739 20.3512 24.0984 20.3022 24.1094 20.2804C24.138 20.1205 24.1345 19.9565 24.0989 19.798L24.0689 19.7081C24.0563 19.6609 24.0409 19.6144 24.0227 19.5691L23.9601 19.4627L24.0011 19.3537C23.9554 19.2888 23.9034 19.2286 23.8459 19.1738L20.2595 15.7344C24.9846 12.3169 31.3379 12.2025 36.1829 15.4478C41.0279 18.6931 43.3401 24.6118 41.9779 30.2819C40.6158 35.9521 35.8675 40.1747 30.077 40.8651C24.2866 41.5555 18.6785 38.5677 16.0214 33.3768C15.7043 32.7994 14.9859 32.5784 14.3992 32.8778C13.8124 33.1772 13.5698 33.8886 13.8513 34.4842C17.5566 41.6481 25.924 45.0504 33.5772 42.505C41.2305 39.9596 45.8933 32.2234 44.5698 24.2673Z" fill="white"/>
</g>
<defs>
<clipPath id="clip0_341_38">
<rect width="39" height="39" fill="white" transform="translate(18.0211) rotate(26.6107)"/>
</clipPath>
</defs>
</svg>
